<?xml version="1.0" encoding="UTF-8"?>
<svg width="158px" height="61px" viewBox="0 0 158 61" version="1.1" xmlns="http://www.w3.org/2000/svg" xmlns:xlink="http://www.w3.org/1999/xlink">
    <title>Group Copy 3</title>
    <g id="Page-1" stroke="none" stroke-width="1" fill="none" fill-rule="evenodd">
        <g id="Group-3" transform="translate(-58.000000, -30.000000)">
            <g id="Group-2" transform="translate(58.000000, 30.000000)">
                <rect id="Rectangle" fill="#0070F3" x="0" y="0" width="23" height="51" rx="2"></rect>
                <rect id="Rectangle-Copy" fill="#0070F3" x="30.7614679" y="0" width="26.2385321" height="17" rx="2"></rect>
                <rect id="Rectangle-Copy-5" fill="#0070F3" opacity="0.51302156" x="30.7614679" y="25" width="26.2385321" height="26" rx="2"></rect>
                <g id="Hugo" transform="translate(64.330000, 21.758000)" fill="#FFFFFF" fill-rule="nonzero">
                    <path d="M16.96,0.742 L26.818,0.742 L26.818,19.186 C26.818,19.928 26.818,20.67 26.818,21.412 L30.846,21.412 L30.846,27.242 L22.472,27.242 L21.253,23.32 L21.041,23.32 C20.2283333,24.6626667 19.0093333,25.7756667 17.384,26.659 C15.7586667,27.5423333 13.9566667,27.984 11.978,27.984 C10.6353333,27.984 9.4075,27.8073333 8.2945,27.454 C7.1815,27.1006667 6.23633333,26.5176667 5.459,25.705 C4.68166667,24.8923333 4.081,23.797 3.657,22.419 C3.233,21.041 3.021,19.3096667 3.021,17.225 L3.021,6.572 L0,6.572 L0,0.742 L9.911,0.742 L9.911,15.794 C9.911,17.9493333 10.2555,19.504 10.9445,20.458 C11.6335,21.412 12.72,21.889 14.204,21.889 C15.5113333,21.889 16.6861667,21.5003333 17.7285,20.723 C18.7708333,19.9456667 19.504,18.9916667 19.928,17.861 L19.928,6.572 L16.96,6.572 L16.96,0.742 Z" id="Path"></path>
                    <path d="M59.36,27.242 C59.36,29.15 59.0331667,30.8106667 58.3795,32.224 C57.7258333,33.6373333 56.8248333,34.8121667 55.6765,35.7485 C54.5281667,36.6848333 53.1678333,37.3738333 51.5955,37.8155 C50.0231667,38.2571667 48.3006667,38.478 46.428,38.478 C45.156,38.478 43.9635,38.3808333 42.8505,38.1865 C41.7375,37.9921667 40.7128333,37.736 39.7765,37.418 C38.8401667,37.1 38.0186667,36.7555 37.312,36.3845 C36.6053333,36.0135 36.04,35.6513333 35.616,35.298 L38.266,30.422 C39.114,30.9873333 40.1298333,31.5261667 41.3135,32.0385 C42.4971667,32.5508333 43.99,32.807 45.792,32.807 C48.018,32.807 49.714,32.2946667 50.88,31.27 C52.046,30.2453333 52.629,28.779 52.629,26.871 L52.629,25.175 L52.417,25.175 C51.781,26.023 50.8446667,26.6501667 49.608,27.0565 C48.3713333,27.4628333 46.9403333,27.666 45.315,27.666 C43.619,27.666 42.0555,27.401 40.6245,26.871 C39.1935,26.341 37.948,25.5371667 36.888,24.4595 C35.828,23.3818333 35.0065,22.0126667 34.4235,20.352 C33.8405,18.6913333 33.549,16.748 33.549,14.522 C33.549,12.19 33.8935,10.123 34.5825,8.321 C35.2715,6.519 36.2431667,5.0085 37.4975,3.7895 C38.7518333,2.5705 40.2535,1.65183333 42.0025,1.0335 C43.7515,0.415166667 45.7036667,0.106 47.859,0.106 C48.9896667,0.106 50.1203333,0.150166667 51.251,0.2385 C52.3816667,0.326833333 53.4505,0.441666667 54.4575,0.583 C55.4645,0.724333333 56.392,0.892166667 57.24,1.0865 C58.088,1.28083333 58.7946667,1.484 59.36,1.696 L59.36,27.242 Z M46.64,22.154 C47.9826667,22.154 49.1928333,21.8536667 50.2705,21.253 C51.3481667,20.6523333 52.0813333,19.7513333 52.47,18.55 L52.47,6.625 C51.9753333,6.413 51.2775,6.24516667 50.3765,6.1215 C49.4755,5.99783333 48.6186667,5.936 47.806,5.936 C46.8166667,5.936 45.8891667,6.095 45.0235,6.413 C44.1578333,6.731 43.3981667,7.2345 42.7445,7.9235 C42.0908333,8.6125 41.5785,9.47816667 41.2075,10.5205 C40.8365,11.5628333 40.651,12.8083333 40.651,14.257 C40.651,15.529 40.81,16.6596667 41.128,17.649 C41.446,18.6383333 41.8876667,19.4686667 42.453,20.14 C43.0183333,20.8113333 43.6543333,21.3148333 44.361,21.6505 C45.0676667,21.9861667 45.8273333,22.154 46.64,22.154 Z" id="Shape"></path>
                    <path d="M64.925,13.992 C64.925,11.766 65.2606667,9.78733333 65.932,8.056 C66.6033333,6.32466667 67.5573333,4.85833333 68.794,3.657 C70.0306667,2.45566667 71.5058333,1.54583333 73.2195,0.9275 C74.9331667,0.309166667 76.85,0 78.97,0 C81.196,0 83.1835,0.335666667 84.9325,1.007 C86.6815,1.67833333 88.1566667,2.6235 89.358,3.8425 C90.5593333,5.0615 91.4691667,6.53666667 92.0875,8.268 C92.7058333,9.99933333 93.015,11.9073333 93.015,13.992 C93.015,16.218 92.6793333,18.1966667 92.008,19.928 C91.3366667,21.6593333 90.3826667,23.1256667 89.146,24.327 C87.9093333,25.5283333 86.4341667,26.4381667 84.7205,27.0565 C83.0068333,27.6748333 81.09,27.984 78.97,27.984 C76.744,27.984 74.7565,27.6483333 73.0075,26.977 C71.2585,26.3056667 69.7833333,25.3605 68.582,24.1415 C67.3806667,22.9225 66.4708333,21.4473333 65.8525,19.716 C65.2341667,17.9846667 64.925,16.0766667 64.925,13.992 Z M72.027,13.992 C72.027,15.158 72.186,16.2356667 72.504,17.225 C72.822,18.2143333 73.2813333,19.08 73.882,19.822 C74.4826667,20.564 75.207,21.1381667 76.055,21.5445 C76.903,21.9508333 77.8746667,22.154 78.97,22.154 C81.0193333,22.154 82.6888333,21.5003333 83.9785,20.193 C85.2681667,18.8856667 85.913,16.8186667 85.913,13.992 C85.913,11.554 85.3123333,9.58416667 84.111,8.0825 C82.9096667,6.58083333 81.196,5.83 78.97,5.83 C77.9806667,5.83 77.062,5.98016667 76.214,6.2805 C75.366,6.58083333 74.6328333,7.06666667 74.0145,7.738 C73.3961667,8.40933333 72.9103333,9.25733333 72.557,10.282 C72.2036667,11.3066667 72.027,12.5433333 72.027,13.992 Z" id="Shape"></path>
                </g>
            </g>
        </g>
    </g>
</svg>